<?xml version="1.0" ?><svg viewBox="0 0 512 512" xmlns="http://www.w3.org/2000/svg" xmlns:xlink="http://www.w3.org/1999/xlink"><defs><style>.cls-1{fill:none;}.cls-2{clip-path:url(#clip-path);}.cls-3{fill:#202d40;}.cls-4{fill:#7f8c8d;}.cls-5{fill:#c0402b;}</style><clipPath id="clip-path"><rect class="cls-1" height="400.97" id="SVGID" width="460" x="26" y="55.52"/></clipPath></defs><title/><g id="Google"><g id="Gcloud"><g class="cls-2"><path class="cls-3" d="M376,68.88c-5.57-7.8-14.48-13.36-24.5-13.36H159.87c-10,0-18.93,5.56-24.5,13.36L70.77,174.69,122,256l70.17-111.38H421.61Zm-209.4,42.25c-6.68,0-11.13-4.45-11.13-11.14s4.45-11.14,11.13-11.14,11.14,4.46,11.14,11.14-4.45,11.14-11.14,11.14Zm178.21,0c-6.68,0-11.14-4.45-11.14-11.14s4.46-11.14,11.14-11.14S355.9,93.31,355.9,100s-4.45,11.14-11.14,11.14Z"/><path class="cls-4" d="M192.17,367.38,70.77,175.81l-40.1,65.71a29.14,29.14,0,0,0,0,30.07l104.7,171.53c5.57,8.91,14.48,13.36,24.5,13.36H261.23l56.8-89.1ZM77.45,267.06c-6.68,0-11.14-4.45-11.14-11.13s4.46-11.14,11.14-11.14,11.14,4.45,11.14,11.14-4.46,11.13-11.14,11.13ZM166.55,423c-6.68,0-11.13-4.46-11.13-11.14s4.45-11.14,11.13-11.14,11.14,4.45,11.14,11.14S173.24,423,166.55,423Z"/></g><polygon class="cls-3" points="70.77 175.73 122 255.93 148.73 214.72 83.02 155.68 70.77 175.73"/><g class="cls-2"><polygon class="cls-4" points="262.34 456.48 319.14 367.38 265.68 367.38 240.06 456.48 262.34 456.48"/><path class="cls-5" d="M480.65,241.52l-59-96.9H319.15L389.31,256l-127,200.48h89.11c10,0,18.93-5.56,24.5-13.36L481.76,271.59c5.57-10,5.57-21.16-1.11-30.07ZM344.76,423c-6.68,0-11.14-4.46-11.14-11.14s4.46-11.14,11.14-11.14,11.14,4.45,11.14,11.14S351.45,423,344.76,423Zm89.11-155.94c-6.69,0-11.14-4.45-11.14-11.13s4.45-11.14,11.14-11.14S445,249.24,445,255.93s-4.45,11.13-11.13,11.13Z"/></g><polygon class="cls-5" points="421.62 144.62 319.14 144.62 346.99 188.06 434.98 166.9 421.62 144.62"/></g></g></svg>